<?xml version="1.0" encoding="UTF-8" standalone="no"?>
<svg
   xmlns:dc="http://purl.org/dc/elements/1.1/"
   xmlns:cc="http://creativecommons.org/ns#"
   xmlns:rdf="http://www.w3.org/1999/02/22-rdf-syntax-ns#"
   xmlns:svg="http://www.w3.org/2000/svg"
   xmlns="http://www.w3.org/2000/svg"
   xmlns:sodipodi="http://sodipodi.sourceforge.net/DTD/sodipodi-0.dtd"
   xmlns:inkscape="http://www.inkscape.org/namespaces/inkscape"
   width="24px"
   height="40px"
   viewBox="0 0 24 40"
   version="1.1"
   id="svg10"
   sodipodi:docname="ic-nav-privacy.svg"
   inkscape:version="0.92.3 (2405546, 2018-03-11)">
  <metadata
     id="metadata16">
    <rdf:RDF>
      <cc:Work
         rdf:about="">
        <dc:format>image/svg+xml</dc:format>
        <dc:type
           rdf:resource="http://purl.org/dc/dcmitype/StillImage" />
      </cc:Work>
    </rdf:RDF>
  </metadata>
  <defs
     id="defs14" />
  <sodipodi:namedview
     pagecolor="#ffffff"
     bordercolor="#666666"
     borderopacity="1"
     objecttolerance="10"
     gridtolerance="10"
     guidetolerance="10"
     inkscape:pageopacity="0"
     inkscape:pageshadow="2"
     inkscape:window-width="1800"
     inkscape:window-height="983"
     id="namedview12"
     showgrid="false"
     inkscape:zoom="5.9"
     inkscape:cx="-14.610169"
     inkscape:cy="20"
     inkscape:window-x="67"
     inkscape:window-y="27"
     inkscape:window-maximized="0"
     inkscape:current-layer="svg10" />
  <!-- Generator: Sketch 52.6 (67491) - http://www.bohemiancoding.com/sketch -->
  <title
     id="title2">Privacy</title>
  <desc
     id="desc4">Created with Sketch.</desc>
  <g
     id="Privacy"
     stroke="none"
     stroke-width="1"
     fill="none"
     fill-rule="evenodd">
    <g
       id="Group"
       transform="translate(1.000000, 13.000000)"
       fill="#938DA5"
       fill-rule="nonzero">
      <path
         d="M20.025,10.116 L17.771,0.009 L11,1.156 L4.229,0 L1.975,10.116 L0,10.116 L0,12.116 L22,12.116 L22,10.116 L20.025,10.116 Z M5.771,2.294 L11,3.183 L16.229,2.283 L17.976,10.116 L4.024,10.116 L5.771,2.294 Z"
         id="Path_18869" />
      <path
         d="M12,16.116 L10,16.116 L10,14.116 L1,14.116 L1,17.854 C1.08087292,20.2726593 3.08016383,22.1830929 5.5,22.154 C7.77023475,22.0683766 9.65187105,20.366305 9.964,18.116 L12.036,18.116 C12.3490129,20.3655153 14.2304203,22.0665369 16.5,22.152 C18.9198362,22.1810929 20.9191271,20.2706593 21,17.852 L21,14.116 L12,14.116 L12,16.116 Z M8,17.854 C7.90893564,19.1676128 6.81676551,20.186691 5.5,20.186691 C4.18323449,20.186691 3.09106436,19.1676128 3,17.854 L3,16.116 L8,16.116 L8,17.854 Z M14,16.116 L19,16.116 L19,17.854 C18.9089356,19.1676128 17.8167655,20.186691 16.5,20.186691 C15.1832345,20.186691 14.0910644,19.1676128 14,17.854 L14,16.116 Z"
         id="Path_18870" />
    </g>
  </g>
  <path
     style="fill:#445500;stroke-width:0.16949153"
     d="M 5.2870383,34.926383 C 4.1205734,34.57156 3.0725146,33.684164 2.4714049,32.542373 2.22128,32.067267 2.1468434,31.468256 2.0975545,29.533898 L 2.036012,27.118644 h 4.4226719 4.4226721 v 1.016949 1.016949 h 1.101695 1.101695 v -1.016949 -1.016949 h 4.419283 4.419285 l -0.05488,2.415254 c -0.0604,2.658231 -0.207231,3.17116 -1.197834,4.184374 -0.898517,0.919025 -1.752736,1.271152 -3.094331,1.275549 -1.004261,0.0033 -1.327575,-0.07401 -2.105574,-0.503441 -1.028706,-0.567809 -1.743652,-1.440972 -2.175542,-2.656988 L 13.00518,31.016949 h -1.041791 -1.041791 l -0.183538,0.728896 c -0.57126,2.26868 -3.2707278,3.843753 -5.4510217,3.180538 z M 7.6576385,32.923465 C 8.6391353,32.430344 9.0169492,31.681478 9.0169492,30.229172 V 28.983051 H 6.4566297 3.8963102 l 0.06032,1.313559 c 0.046839,1.020011 0.1443379,1.431346 0.4362827,1.840625 0.7312084,1.025087 2.1224445,1.360132 3.2647256,0.78623 z m 11.0169495,0 c 0.981497,-0.493121 1.35931,-1.241987 1.35931,-2.694293 v -1.246121 h -2.560319 -2.56032 l 0.06032,1.313559 c 0.04834,1.052779 0.140951,1.426613 0.466465,1.883012 0.715615,1.003358 2.089261,1.319253 3.234544,0.743843 z"
     id="path823"
     inkscape:connector-curvature="0" />
  <path
     style="fill:#445500;stroke-width:0.16949153"
     d="M 1.0508475,24.152542 V 23.220339 H 2.0415943 3.032341 l 1.0855244,-4.928242 c 0.5970385,-2.710533 1.1239502,-4.991855 1.1709151,-5.069605 0.046965,-0.07775 1.5723887,0.116351 3.3898305,0.431334 l 3.30444,0.572696 3.050847,-0.506303 c 1.677966,-0.278466 3.196217,-0.523925 3.37389,-0.545464 0.289871,-0.03514 0.4378,0.474237 1.440678,4.960838 l 1.117636,5 0.974576,0.05083 0.974576,0.05083 v 0.923745 0.923745 H 11.983051 1.0508475 Z M 19.016949,23.070836 c 0,-0.237897 -1.712413,-7.721102 -1.783006,-7.791695 -0.03503,-0.03503 -1.22449,0.141007 -2.643255,0.391184 L 12.011115,16.125192 9.4048071,15.668996 C 7.9713376,15.418089 6.7719768,15.241192 6.7395608,15.275892 c -0.032416,0.0347 -0.4143703,1.664786 -0.8487877,3.622413 -0.4344173,1.957627 -0.8322667,3.730932 -0.8841094,3.940678 l -0.09426,0.381356 h 7.0522733 c 3.959918,0 7.052272,-0.06555 7.052272,-0.149503 z"
     id="path825"
     inkscape:connector-curvature="0" />
  <path
     style="fill:#ffffff;stroke-width:0.16949153"
     d=""
     id="path822"
     inkscape:connector-curvature="0" />
  <path
     style="fill:#ffffff;stroke-width:0.16949153"
     d="M 5.5792376,34.899297 C 4.6154434,34.673005 4.0709692,34.340994 3.3102411,33.515702 2.4206354,32.550593 2.2883835,32.075121 2.1555659,29.364407 L 2.0455296,27.118644 h 4.4179131 4.4179133 v 1.016949 1.016949 h 1.101695 1.101695 v -1.016949 -1.016949 h 4.417913 4.417914 l -0.110037,2.245763 c -0.06052,1.235169 -0.190721,2.512712 -0.289334,2.838983 -0.684246,2.263881 -3.605656,3.396763 -5.861071,2.272842 -1.045504,-0.520996 -1.745881,-1.318513 -2.251118,-2.563338 l -0.369506,-0.910402 -1.104294,0.0496 -1.104294,0.0496 -0.223306,0.767902 c -0.573835,1.973301 -3.0845949,3.486086 -5.0283754,3.0297 z M 7.627061,32.982206 c 1.0418998,-0.5421 1.3002888,-1.029008 1.3649078,-2.572031 l 0.059765,-1.427124 H 6.4440554 3.8363766 l 0.064138,1.228813 c 0.073426,1.406762 0.3766382,2.064951 1.2099849,2.626543 0.6597461,0.444603 1.8118926,0.510438 2.5165615,0.143799 z m 11.016949,0 c 1.0419,-0.5421 1.300288,-1.029008 1.364909,-2.572031 l 0.05976,-1.427124 h -2.607678 -2.607679 l 0.06414,1.228813 c 0.07343,1.406762 0.376638,2.064951 1.209985,2.626543 0.659746,0.444603 1.811893,0.510438 2.516561,0.143799 z"
     id="path824"
     inkscape:connector-curvature="0" />
  <path
     style="fill:#ffffff;stroke-width:0.16949153"
     d="M 1.0508475,24.152542 V 23.220339 H 2.056375 c 0.8110196,0 1.0226047,-0.05738 1.0938096,-0.29661 0.07412,-0.249028 1.8444985,-8.119383 2.0988937,-9.330794 0.066242,-0.315439 0.1670429,-0.374711 0.5265924,-0.309641 0.2445674,0.04426 1.779414,0.288456 3.41077,0.542657 l 2.9661013,0.462184 3.132526,-0.52849 c 1.72289,-0.29067 3.191818,-0.469199 3.264286,-0.396732 0.118168,0.118169 1.339453,5.13334 2.080583,8.543867 l 0.285446,1.313559 h 0.999936 0.999935 v 0.932203 0.932204 H 11.983051 1.0508475 Z M 19.016949,22.964307 c 0,-0.305014 -0.492495,-2.56847 -1.20739,-5.549053 -0.607929,-2.534609 -0.246696,-2.35833 -3.59313,-1.753418 l -2.173402,0.392871 -2.6045528,-0.438664 c -1.432504,-0.241266 -2.6486867,-0.394531 -2.7026283,-0.34059 -0.1131923,0.113193 -1.7866934,7.321492 -1.7866934,7.695855 0,0.215047 0.9598914,0.249031 7.0338985,0.249031 6.161269,0 7.033898,-0.03176 7.033898,-0.256032 z"
     id="path826"
     inkscape:connector-curvature="0" />
</svg>
