<?xml version="1.0" encoding="UTF-8" standalone="no"?>
<svg
   xmlns:dc="http://purl.org/dc/elements/1.1/"
   xmlns:cc="http://creativecommons.org/ns#"
   xmlns:rdf="http://www.w3.org/1999/02/22-rdf-syntax-ns#"
   xmlns:svg="http://www.w3.org/2000/svg"
   xmlns="http://www.w3.org/2000/svg"
   xmlns:sodipodi="http://sodipodi.sourceforge.net/DTD/sodipodi-0.dtd"
   xmlns:inkscape="http://www.inkscape.org/namespaces/inkscape"
   width="24px"
   height="40px"
   viewBox="0 0 24 40"
   version="1.1"
   id="svg12"
   sodipodi:docname="ic-nav-settings.svg"
   inkscape:version="0.92.3 (2405546, 2018-03-11)">
  <metadata
     id="metadata18">
    <rdf:RDF>
      <cc:Work
         rdf:about="">
        <dc:format>image/svg+xml</dc:format>
        <dc:type
           rdf:resource="http://purl.org/dc/dcmitype/StillImage" />
      </cc:Work>
    </rdf:RDF>
  </metadata>
  <defs
     id="defs16" />
  <sodipodi:namedview
     pagecolor="#ffffff"
     bordercolor="#666666"
     borderopacity="1"
     objecttolerance="10"
     gridtolerance="10"
     guidetolerance="10"
     inkscape:pageopacity="0"
     inkscape:pageshadow="2"
     inkscape:window-width="1833"
     inkscape:window-height="990"
     id="namedview14"
     showgrid="false"
     inkscape:zoom="5.9"
     inkscape:cx="-14.610169"
     inkscape:cy="20"
     inkscape:window-x="67"
     inkscape:window-y="27"
     inkscape:window-maximized="0"
     inkscape:current-layer="svg12" />
  <!-- Generator: Sketch 52.6 (67491) - http://www.bohemiancoding.com/sketch -->
  <title
     id="title2">Settings</title>
  <desc
     id="desc4">Created with Sketch.</desc>
  <g
     id="Settings"
     stroke="none"
     stroke-width="1"
     fill="none"
     fill-rule="evenodd">
    <g
       id="Group_8818"
       transform="translate(1.000000, 13.000000)"
       fill="#938DA5"
       fill-rule="nonzero">
      <g
         id="Group_8816">
        <path
           d="M13.9,22 L8.1,22 L7.787,18.864 L7.72,18.837 L5.281,20.837 L1.167,16.725 L3.167,14.285 L3.139,14.219 L0,13.9 L0,8.1 L3.135,7.786 L3.163,7.72 L1.163,5.28 L5.276,1.168 L7.715,3.168 L7.782,3.141 L8.1,0 L13.9,0 L14.213,3.136 L14.28,3.163 L16.719,1.163 L20.828,5.27 L18.828,7.71 L18.856,7.776 L22,8.1 L22,13.9 L18.865,14.214 L18.837,14.28 L20.837,16.72 L16.728,20.827 L14.289,18.827 L14.222,18.854 L13.9,22 Z M9.9,20 L12.1,20 L12.361,17.39 L12.987,17.19 C13.3287124,17.08012 13.660554,16.9416296 13.979,16.776 L14.562,16.476 L16.595,18.14 L18.143,16.591 L16.479,14.556 L16.779,13.972 C16.9446037,13.6542337 17.0830952,13.3230586 17.193,12.982 L17.393,12.357 L20,12.1 L20,9.9 L17.39,9.639 L17.19,9.014 C17.0800952,8.67294144 16.9416037,8.3417663 16.776,8.024 L16.476,7.44 L18.138,5.41 L16.59,3.861 L14.557,5.525 L13.974,5.225 C13.655552,5.05937466 13.3237108,4.92088448 12.982,4.811 L12.356,4.611 L12.1,2 L9.9,2 L9.639,4.61 L9.013,4.81 C8.67128919,4.91988448 8.33944799,5.05837466 8.021,5.224 L7.438,5.524 L5.41,3.861 L3.862,5.41 L5.526,7.445 L5.226,8.029 C5.06039627,8.3467663 4.92190485,8.67794144 4.812,9.019 L4.612,9.644 L2,9.9 L2,12.1 L4.61,12.361 L4.81,12.986 C4.91990485,13.3270586 5.05839627,13.6582337 5.224,13.976 L5.524,14.56 L3.862,16.59 L5.41,18.139 L7.443,16.475 L8.026,16.775 C8.34444598,16.9406296 8.67628755,17.07912 9.018,17.189 L9.644,17.389 L9.9,20 Z"
           id="Path_18871" />
      </g>
      <g
         id="Group_8817"
         transform="translate(7.000000, 7.000000)">
        <path
           d="M4,8 C1.790861,8 0,6.209139 0,4 C0,1.790861 1.790861,0 4,0 C6.209139,0 8,1.790861 8,4 C8,5.06086596 7.57857264,6.07828161 6.82842712,6.82842712 C6.07828161,7.57857264 5.06086596,8 4,8 Z M4,2 C2.8954305,2 2,2.8954305 2,4 C2,5.1045695 2.8954305,6 4,6 C5.1045695,6 6,5.1045695 6,4 C6,2.8954305 5.1045695,2 4,2 Z"
           id="Path_18872" />
      </g>
    </g>
  </g>
  <path
     style="fill:#668000;stroke-width:0.16949153"
     d="M 10.389831,27.542398 C 8.058391,26.460653 7.359628,23.488555 8.9760307,21.528983 9.6500412,20.711877 10.979144,20.071108 12,20.071108 c 1.560611,0 3.336365,1.289003 3.731352,2.708553 0.734492,2.639703 -1.08436,5.092183 -3.768281,5.081023 -0.508101,-0.0021 -1.18847,-0.139759 -1.57324,-0.318286 z m 2.72649,-1.821805 c 1.289838,-0.845134 1.173355,-2.878629 -0.202286,-3.531414 -0.683898,-0.324531 -1.144172,-0.324531 -1.82807,0 -1.8919337,0.897782 -1.2216718,3.807546 0.877625,3.809979 0.399467,4.58e-4 0.918196,-0.124891 1.152731,-0.278565 z"
     id="path828"
     inkscape:connector-curvature="0" />
  <path
     style="fill:#668000;stroke-width:0.16949153"
     d="M 9.0244724,33.453941 C 8.9586814,32.612931 8.8547131,31.893842 8.793432,31.855968 8.7321508,31.818095 8.1427364,32.232139 7.483622,32.776066 L 6.2852325,33.765025 4.2831605,31.757724 2.2810885,29.750422 3.0007917,28.817553 C 3.3966285,28.304475 3.8291463,27.794512 3.9619424,27.684301 4.4914283,27.244866 4.2780547,27.156814 2.1271186,26.927133 L 1.1525424,26.823066 V 23.971899 21.120733 L 2.6779661,21 c 0.8389831,-0.0664 1.5254237,-0.172324 1.5254237,-0.235379 0,-0.06306 -0.4194915,-0.620034 -0.9322034,-1.237728 -0.5127118,-0.617695 -0.9322033,-1.196711 -0.9322033,-1.286702 0,-0.08999 0.8827305,-0.993137 1.9616235,-2.006991 1.0788929,-1.013853 1.9804732,-1.861475 2.0035119,-1.883605 0.023039,-0.02213 0.553282,0.381587 1.1783188,0.897146 0.6250366,0.515559 1.2107444,0.891452 1.3015727,0.835317 0.090828,-0.05614 0.1658054,-0.345444 0.1666158,-0.642908 8.103e-4,-0.297465 0.04957,-0.941269 0.1083544,-1.430675 L 9.1658614,13.118644 H 12 14.834139 l 0.106881,0.889831 c 0.05878,0.489406 0.107544,1.13321 0.108354,1.430675 8.14e-4,0.297464 0.07869,0.588568 0.173072,0.646898 0.09438,0.05833 0.571075,-0.22605 1.059322,-0.631955 0.488248,-0.405905 1.025842,-0.843677 1.194653,-0.972827 0.278796,-0.213293 0.48465,-0.0576 2.245764,1.698516 1.066357,1.063333 1.938832,1.993814 1.938832,2.067735 0,0.07392 -0.419492,0.642972 -0.932203,1.264557 -0.512712,0.621584 -0.932204,1.183487 -0.932204,1.248673 0,0.06519 0.686441,0.17285 1.525424,0.239253 l 1.525424,0.120733 v 2.841186 2.841185 l -0.635594,0.105057 c -0.349576,0.05778 -0.902542,0.111258 -1.228813,0.118836 -1.272366,0.02955 -1.312458,0.159429 -0.392178,1.270442 0.459063,0.554205 0.897242,1.111233 0.973732,1.237839 0.09828,0.162669 -0.425708,0.796583 -1.786273,2.161017 -1.058939,1.061952 -1.990752,1.930824 -2.070693,1.930824 -0.07994,0 -0.649402,-0.418385 -1.265468,-0.929744 -0.716617,-0.594822 -1.162437,-0.861273 -1.237594,-0.739668 -0.06461,0.104544 -0.170615,0.828013 -0.235563,1.607712 l -0.118088,1.417632 H 11.997509 9.1440925 Z m 4.2535256,-1.648856 0.114853,-1.31356 1.108235,-0.457849 1.108235,-0.45785 0.883104,0.75446 c 0.485708,0.414953 0.954341,0.75446 1.041406,0.75446 0.08707,0 0.492576,-0.3406 0.901133,-0.75689 l 0.742833,-0.756891 -0.783653,-0.997465 -0.783652,-0.997464 0.375125,-0.915137 c 0.535629,-1.306695 0.505732,-1.282917 1.737319,-1.381777 0.617042,-0.04953 1.195267,-0.163428 1.284945,-0.253106 0.08968,-0.08968 0.139846,-0.612727 0.111483,-1.16233 l -0.05157,-0.999279 -1.283226,-0.144064 -1.283225,-0.144063 -0.473271,-1.086365 -0.473273,-1.086365 0.781922,-0.915248 c 0.430056,-0.503387 0.78192,-0.982543 0.78192,-1.064791 0,-0.08225 -0.337654,-0.480924 -0.750341,-0.885946 l -0.750341,-0.736404 -0.41471,0.319758 c -0.22809,0.175868 -0.688248,0.536242 -1.022573,0.800831 l -0.607863,0.481073 -1.0621,-0.426791 c -0.584154,-0.234735 -1.077233,-0.489353 -1.09573,-0.565818 -0.0185,-0.07646 -0.08356,-0.653858 -0.144579,-1.283095 L 13.15946,14.983051 H 12 10.84054 l -0.110947,1.144068 c -0.06102,0.629237 -0.126082,1.20663 -0.144579,1.283095 -0.0185,0.07646 -0.511576,0.331083 -1.0957304,0.565818 L 8.4271841,18.402823 7.819321,17.92175 C 7.4849964,17.657161 7.0248385,17.296787 6.796748,17.120919 l -0.4147102,-0.319758 -0.750341,0.736404 c -0.4126875,0.405022 -0.7503409,0.803698 -0.7503409,0.885946 0,0.08225 0.3518644,0.561404 0.781921,1.064791 L 6.445198,20.40355 5.9719261,21.489915 5.4986542,22.57628 4.2154288,22.720343 2.9322034,22.864407 2.8806351,23.863686 c -0.028363,0.549603 0.021805,1.072652 0.1114827,1.16233 0.089678,0.08968 0.6679041,0.203576 1.2849469,0.253106 1.2315865,0.09886 1.2016902,0.07508 1.7373189,1.381777 l 0.3751245,0.915137 -0.7836523,0.997464 -0.7836524,0.997465 0.7428319,0.756891 c 0.4085574,0.41629 0.8140674,0.75689 0.9011333,0.75689 0.087066,0 0.5556985,-0.339507 1.0414061,-0.75446 l 0.8831048,-0.75446 1.1082349,0.45785 1.1082346,0.457849 0.114853,1.31356 0.114854,1.313559 H 12 13.163144 Z"
     id="path830"
     inkscape:connector-curvature="0" />
  <path
     style="fill:#ffffff;stroke-width:0.16949153"
     d="M 9.0656575,33.518761 C 9.0085132,32.70902 8.8987012,31.983447 8.8216308,31.906376 c -0.07707,-0.07707 -0.6655496,0.278568 -1.3077316,0.790307 -0.6421819,0.511739 -1.2228331,0.930436 -1.290336,0.930436 -0.1747617,0 -3.6206444,-3.703143 -3.6775774,-3.952135 -0.025979,-0.113618 0.3363091,-0.636904 0.8050847,-1.162858 0.4687756,-0.525955 0.8523193,-1.031237 0.8523193,-1.122849 0,-0.248506 -0.3622915,-0.344945 -1.7776865,-0.473205 l -1.281142,-0.116094 0.046363,-2.815243 c 0.044036,-2.673946 0.063377,-2.816915 0.3853465,-2.84855 0.1864407,-0.01832 0.8538135,-0.08159 1.4830508,-0.140609 0.6292373,-0.05902 1.1440678,-0.168526 1.1440678,-0.243354 0,-0.07483 -0.3798408,-0.621724 -0.8440908,-1.215323 -0.46425,-0.5936 -0.8456059,-1.156974 -0.8474576,-1.251943 -0.00314,-0.161195 2.9645288,-3.157551 3.5809681,-3.615581 0.2352476,-0.174795 0.4592339,-0.07126 1.4214664,0.65705 0.628219,0.475497 1.2049275,0.801829 1.2815744,0.725182 0.076647,-0.07665 0.1996989,-0.748851 0.2734489,-1.493787 l 0.134091,-1.35443 H 12 14.79661 l 0.126034,1.271186 c 0.167603,1.690468 0.198373,1.759051 0.676536,1.507945 0.211129,-0.110874 0.737676,-0.495519 1.170105,-0.854767 0.432429,-0.359248 0.853221,-0.653178 0.935094,-0.653178 0.207316,0 3.787918,3.611402 3.78378,3.816327 -0.0018,0.0917 -0.383208,0.652396 -0.847457,1.245996 -0.464251,0.593599 -0.844092,1.140495 -0.844092,1.215323 0,0.07483 0.514831,0.184337 1.144068,0.243354 0.629237,0.05902 1.29661,0.122291 1.483051,0.140609 0.32394,0.03183 0.338983,0.157403 0.338983,2.829917 v 2.79661 l -1.398305,0.155226 c -1.070905,0.118881 -1.398305,0.215623 -1.398305,0.41318 0,0.141875 0.347539,0.700316 0.772308,1.24098 0.60247,0.766848 0.73651,1.046994 0.609524,1.273906 -0.252419,0.451049 -3.461222,3.612189 -3.661493,3.607106 -0.09788,-0.0025 -0.629817,-0.345703 -1.182078,-0.762712 -0.552261,-0.417006 -1.099157,-0.758195 -1.215323,-0.758195 -0.137163,0 -0.248831,0.401099 -0.318514,1.144068 -0.05902,0.629237 -0.122291,1.29661 -0.14061,1.483051 -0.03163,0.321959 -0.174601,0.341312 -2.846833,0.385339 l -2.8135269,0.04636 z m 4.1834465,-0.781473 c 0.05621,-0.209746 0.103241,-0.77821 0.104514,-1.263256 l 0.0023,-0.881898 0.795641,-0.351951 c 1.355484,-0.599594 1.440396,-0.59395 2.348008,0.156056 0.458253,0.378678 0.914873,0.688507 1.014711,0.688507 0.217654,0 1.604352,-1.345612 1.604352,-1.556817 0,-0.08144 -0.305085,-0.534032 -0.677966,-1.005762 -0.372881,-0.47173 -0.67722,-0.946182 -0.67631,-1.054336 8.47e-4,-0.108155 0.185991,-0.592562 0.411291,-1.076462 0.368268,-0.790966 0.47508,-0.889781 1.057666,-0.978482 0.356417,-0.05427 0.91498,-0.154111 1.241251,-0.221878 l 0.593221,-0.123212 0.04979,-1.129783 0.04979,-1.129783 -1.151487,-0.111058 c -0.633317,-0.06108 -1.230622,-0.13517 -1.327344,-0.16464 -0.09672,-0.02947 -0.373759,-0.512241 -0.615637,-1.072824 l -0.439781,-1.019242 0.742757,-0.905472 c 0.408515,-0.49801 0.742756,-0.985472 0.742756,-1.083249 0,-0.183778 -1.375823,-1.604288 -1.553819,-1.604288 -0.05517,0 -0.536683,0.338851 -1.070028,0.753002 l -0.969719,0.753003 -0.949006,-0.419696 C 14.054101,17.702934 13.600918,17.48794 13.56898,17.456002 13.53704,17.424062 13.47192,17.102466 13.424257,16.741339 13.376597,16.380213 13.300132,15.836864 13.254334,15.533898 L 13.17108,14.983051 H 12 10.82892 l -0.08327,0.550847 c -0.0458,0.302966 -0.122264,0.846315 -0.169923,1.207441 -0.04766,0.361127 -0.112785,0.682725 -0.144723,0.714663 -0.03194,0.03194 -0.4851215,0.246932 -1.007075,0.477765 L 8.4749217,18.353463 7.5052032,17.60046 C 6.9718581,17.186309 6.4903454,16.847458 6.4351749,16.847458 c -0.1674413,0 -1.553819,1.415027 -1.553819,1.585929 0,0.08768 0.3369938,0.56876 0.7488749,1.069069 l 0.7488751,0.909651 -0.4458986,1.033422 c -0.2452442,0.568382 -0.5250346,1.057534 -0.6217563,1.087004 -0.096722,0.02947 -0.6940266,0.103558 -1.3273441,0.16464 l -1.1514861,0.111058 0.049791,1.129783 0.049791,1.129783 0.5932203,0.123212 c 0.3262712,0.06777 0.8848338,0.167612 1.2412502,0.221878 0.5825868,0.0887 0.6893981,0.187516 1.0576663,0.978482 0.2253,0.4839 0.4103815,0.983639 0.4112922,1.110533 9.107e-4,0.126893 -0.303429,0.595105 -0.6763104,1.040471 -0.3728813,0.445366 -0.6779661,0.87863 -0.6779661,0.962809 0,0.20526 1.4092168,1.579564 1.6196919,1.579564 0.091401,0 0.5411178,-0.309829 0.9993715,-0.688507 0.9076114,-0.750006 0.9925238,-0.75565 2.3480075,-0.156056 l 0.7956408,0.351951 0.0023,0.881898 c 0.0042,1.59746 0.043,1.644612 1.353619,1.644612 1.046107,0 1.155887,-0.03352 1.249104,-0.381356 z"
     id="path821"
     inkscape:connector-curvature="0" />
  <path
     style="fill:#ffffff;stroke-width:0.16949153"
     d="M 10.966772,27.631557 C 8.9853896,27.097491 7.7973917,25.093642 8.2769677,23.094545 8.5768322,21.84457 9.7067924,20.706022 11.025424,20.325201 c 0.900609,-0.260096 1.045922,-0.260717 1.914618,-0.0082 1.355222,0.393973 2.513283,1.548498 2.767702,2.75925 0.456348,2.171711 -0.788749,4.158545 -2.888214,4.6088 -0.978694,0.209892 -0.86314,0.21323 -1.852758,-0.05351 z m 2.490855,-2.207828 c 0.470205,-0.470205 0.576271,-0.705724 0.576271,-1.279604 0,-1.739367 -1.552665,-2.732424 -3.056395,-1.954815 -1.1588645,0.599272 -1.3506683,2.442692 -0.347425,3.33909 0.430619,0.384758 0.686494,0.4716 1.389545,0.4716 0.754021,0 0.933763,-0.07203 1.438004,-0.576271 z"
     id="path823"
     inkscape:connector-curvature="0" />
</svg>
