<?xml version="1.0" encoding="UTF-8" standalone="no"?>
<!-- Generator: Adobe Illustrator 23.1.1, SVG Export Plug-In . SVG Version: 6.00 Build 0)  -->

<svg
   xmlns:dc="http://purl.org/dc/elements/1.1/"
   xmlns:cc="http://creativecommons.org/ns#"
   xmlns:rdf="http://www.w3.org/1999/02/22-rdf-syntax-ns#"
   xmlns:svg="http://www.w3.org/2000/svg"
   xmlns="http://www.w3.org/2000/svg"
   xmlns:sodipodi="http://sodipodi.sourceforge.net/DTD/sodipodi-0.dtd"
   xmlns:inkscape="http://www.inkscape.org/namespaces/inkscape"
   version="1.1"
   id="Layer_1"
   x="0px"
   y="0px"
   width="24px"
   height="31px"
   viewBox="0 0 24 30"
   style="enable-background:new 0 0 24 30;"
   xml:space="preserve"
   sodipodi:docname="ic-nav-cold-staking.svg"
   inkscape:version="0.92.3 (2405546, 2018-03-11)"><metadata
   id="metadata15"><rdf:RDF><cc:Work
       rdf:about=""><dc:format>image/svg+xml</dc:format><dc:type
         rdf:resource="http://purl.org/dc/dcmitype/StillImage" /></cc:Work></rdf:RDF></metadata><defs
   id="defs13" /><sodipodi:namedview
   pagecolor="#ffffff"
   bordercolor="#666666"
   borderopacity="1"
   objecttolerance="10"
   gridtolerance="10"
   guidetolerance="10"
   inkscape:pageopacity="0"
   inkscape:pageshadow="2"
   inkscape:window-width="1837"
   inkscape:window-height="1058"
   id="namedview11"
   showgrid="false"
   inkscape:zoom="7.6129032"
   inkscape:cx="-8.6228814"
   inkscape:cy="15.5"
   inkscape:window-x="67"
   inkscape:window-y="27"
   inkscape:window-maximized="0"
   inkscape:current-layer="Layer_1" />
<style
   type="text/css"
   id="style2">
	.st0{fill:#938DA5;}
</style>
	<title
   id="title4">Cold Staking</title>
	<desc
   id="desc6">Created with Sketch.</desc>
	<path
   class="st0"
   d="M21.7,22.1l-3-1.6l2.7-0.5c0.5,0,0.8-0.5,0.5-1.1c0-0.5-0.5-0.8-1.1-0.5l-4.3,1.1l-3-1.6l3-1.6l4.3,1.1h0.3  c0.3,0,0.8-0.3,0.8-0.5c0-0.5-0.3-0.8-0.5-1.1l-2.7-0.5l3-1.6c0.5-0.3,0.5-0.8,0.3-1.1c-0.3-0.3-0.8-0.5-1.1-0.3l-3,1.6l0.8-2.4  c0-0.5-0.3-0.8-0.5-1.1c-0.5,0-1.1,0.3-1.1,0.5L16,14.8l-3,1.6v-3.3l3.3-3c0.3-0.3,0.3-0.8,0-1.1c-0.3-0.3-0.8-0.3-1.4,0L13.1,11  V7.8c0-0.5-0.3-0.8-0.8-0.8c-0.5,0-0.8,0.3-0.8,0.8V11L9.3,8.9C9,8.6,8.5,8.6,7.9,8.9c-0.3,0.3-0.3,0.8,0,1.1l3.3,3v3.3l-3-1.6  l-1.1-4.1c0-0.5-0.5-0.8-1.1-0.5c-0.5,0-0.8,0.5-0.5,1.1l0.8,2.4l-3-1.6c-0.5-0.3-1.1,0-1.1,0.3c-0.3,0.3,0,0.8,0.3,1.1l3,1.6  l-2.7,0.5c-0.5,0-0.8,0.5-0.5,1.1C2.2,16.7,2.8,17,3,17h0.3l4.3-1.1l3,1.6l-3,1.6l-4.3-1.1c-0.5,0-1.1,0.3-1.1,0.5  c0,0.5,0.3,0.8,0.5,1.1l2.7,0.5l-3,1.6c-0.5,0.3-0.5,0.8-0.3,1.1c0.3,0.3,0.5,0.5,0.8,0.5s0.3,0,0.5,0l2.7-1.6l-0.8,2.7  c0,0.5,0.3,0.8,0.5,1.1h0.3c0.3,0,0.8-0.3,0.8-0.5l1.1-4.1l3-1.6v3.3l-3.3,3c-0.3,0.3-0.3,0.8,0,1.1s0.8,0.3,1.4,0l1.9-1.9v3.3  c0,0.5,0.3,0.8,0.8,0.8c0.5,0,0.8-0.3,0.8-0.8v-3.3l1.9,1.9C15,27,15,27,15.2,27c0.3,0,0.5,0,0.5-0.3c0.3-0.3,0.3-0.8,0-1.1l-3.3-3  v-3.5l3,1.6l1.1,4.1c0,0.3,0.5,0.5,0.8,0.5h0.3c0.5,0,0.8-0.5,0.5-1.1v-2.4l3,1.6c0.3,0,0.3,0,0.5,0c0.3,0,0.5-0.3,0.8-0.5  C22.6,23,22.3,22.4,21.7,22.1z"
   id="path8" />
<path
   style="fill:#668000;stroke-width:0.13135593"
   d=""
   id="path825"
   inkscape:connector-curvature="0"
   transform="translate(0,-0.5)" /><path
   style="fill:#668000;stroke-width:0.13135593"
   d="m 11.190215,29.038296 c -0.07479,-0.139741 -0.135978,-1.026394 -0.135978,-1.970339 0,-0.943944 -0.04009,-1.716262 -0.08909,-1.716262 -0.049,0 -0.544646,0.443326 -1.1014411,0.985169 -0.8643024,0.841092 -1.0788201,0.98517 -1.4668272,0.98517 -0.6022998,0 -0.9879316,-0.402245 -0.8146979,-0.849795 0.067361,-0.174029 0.8761299,-1.00315 1.7972634,-1.842493 l 1.6747878,-1.526078 v -1.634462 c 0,-0.921049 -0.05337,-1.63446 -0.122265,-1.63446 -0.06724,0 -0.760976,0.343929 -1.5416236,0.764287 l -1.419359,0.764287 -0.59291,2.145238 C 6.8017834,25.593687 6.7728496,25.659605 6.3455053,25.861009 5.9303194,26.056685 5.8952641,26.05376 5.71586,25.808475 5.3528861,25.312209 5.3601951,24.926756 5.7586062,23.55417 5.9749277,22.808911 6.122549,22.199153 6.0866536,22.199153 c -0.035895,0 -0.6720389,0.354661 -1.4136522,0.788135 -0.7416132,0.433475 -1.4896888,0.788136 -1.6623902,0.788136 -0.1784502,0 -0.4794188,-0.172657 -0.697184,-0.399955 C 1.9524522,22.998691 1.9415124,22.955877 2.1246567,22.636686 2.249819,22.418548 2.867834,22.011244 3.8596894,21.493209 4.7070313,21.050651 5.4015758,20.653257 5.4031216,20.610109 5.4046676,20.566962 4.8191224,20.428583 4.1019104,20.302601 2.7314097,20.061866 2.4741849,19.914068 2.3148908,19.275802 2.2336845,18.950421 2.2731665,18.893586 2.7060531,18.712714 3.1689304,18.519312 3.2728558,18.533773 5.3951277,19.086892 l 2.2075892,0.575355 1.533106,-0.813524 C 10.262204,18.251024 10.624207,18.000484 10.500354,17.904341 10.407638,17.832368 9.7259519,17.455754 8.9854956,17.06742 L 7.6392116,16.361359 5.3732075,16.91877 c -1.2463022,0.306575 -2.3398918,0.556096 -2.430199,0.55449 -0.2794777,-0.005 -0.6896187,-0.511753 -0.6896187,-0.852113 0,-0.421948 0.2109707,-0.518564 1.7076271,-0.78202 C 4.6473517,15.718312 5.296566,15.589151 5.4037156,15.552103 5.5184686,15.512426 4.9346769,15.131912 3.9831977,14.626212 2.2391542,13.699273 1.956579,13.406176 2.2294891,12.807203 c 0.238841,-0.524199 0.764413,-0.423929 2.4097896,0.459746 1.3214027,0.70968 1.686145,0.871543 1.686145,0.748267 0,-0.02193 -0.2070385,-0.654653 -0.4600857,-1.406056 -0.2530471,-0.751403 -0.4268079,-1.471036 -0.3861352,-1.599184 0.040673,-0.128148 0.3093684,-0.30353 0.5971015,-0.389737 0.4372163,-0.130993 0.555453,-0.124438 0.719797,0.03991 0.1081553,0.108155 0.4368947,1.10837 0.730532,2.2227 0.2936372,1.114329 0.5812308,2.114719 0.6390966,2.223087 0.1326641,0.248447 2.9481381,1.735567 3.0648611,1.618844 0.0475,-0.0475 0.08636,-0.783417 0.08636,-1.635379 V 13.540376 L 9.5441532,11.925909 C 8.1288202,10.636979 7.7712547,10.241846 7.7708481,9.9662957 7.7702439,9.5569699 7.9798037,9.356624 8.5219793,9.2481889 c 0.3615023,-0.0723 0.5177678,0.030153 1.6951077,1.1113771 l 1.296896,1.191019 0.0367,-1.7929713 c 0.02146,-1.0484775 0.09632,-1.8648057 0.180279,-1.9659705 0.179491,-0.216273 0.924996,-0.226361 1.135985,-0.015372 0.107634,0.1076336 0.157647,0.7429675 0.157691,2.003178 l 6.3e-5,1.8455508 1.083623,-1.150006 c 0.921765,-0.9782336 1.145987,-1.1499107 1.501147,-1.1493646 0.493586,7.618e-4 0.830358,0.2929991 0.830358,0.7205596 0,0.31634 -0.494402,0.834227 -2.524826,2.644758 l -1.014233,0.904392 -0.0038,1.674788 c -0.0021,0.921134 0.02619,1.674788 0.06281,1.674788 0.03662,0 0.742785,-0.358227 1.569254,-0.796061 l 1.502672,-0.796062 0.195217,-0.681693 c 0.107369,-0.374931 0.353043,-1.243239 0.545939,-1.929574 0.371673,-1.322427 0.587068,-1.660328 1.102853,-1.7301 0.244385,-0.03306 0.378125,0.05672 0.569551,0.382329 l 0.25017,0.425534 -0.405356,1.21674 c -0.222947,0.669207 -0.405358,1.263266 -0.405358,1.320131 0,0.05686 0.76333,-0.297943 1.696288,-0.788461 l 1.696289,-0.891851 0.372567,0.275891 c 0.800248,0.592592 0.509854,0.986729 -1.481619,2.010926 -1.735106,0.89235 -1.729793,0.851038 -0.14566,1.132477 1.239911,0.220284 1.405007,0.282555 1.59304,0.600869 0.319881,0.541515 0.265058,0.850913 -0.183714,1.036801 -0.346056,0.14334 -0.661125,0.09629 -2.613721,-0.390344 -1.221127,-0.304332 -2.300149,-0.533059 -2.397825,-0.508281 -0.406405,0.103095 -2.873771,1.479826 -2.839013,1.584101 0.02079,0.06237 0.685904,0.457727 1.478032,0.878574 l 1.440231,0.765177 2.427207,-0.629227 c 1.679937,-0.435505 2.496123,-0.592344 2.651056,-0.509426 0.320315,0.171427 0.473547,1.17405 0.208996,1.367495 -0.110463,0.08077 -0.854665,0.255924 -1.653783,0.389229 -0.799119,0.133304 -1.424657,0.28814 -1.390084,0.344079 0.03457,0.05594 0.757031,0.466955 1.605464,0.913371 0.848432,0.446414 1.660825,0.927839 1.805317,1.069832 0.262476,0.257938 0.262382,0.258454 -0.105842,0.578779 -0.202704,0.176335 -0.463337,0.32061 -0.579182,0.32061 -0.115846,0 -0.885873,-0.354661 -1.71117,-0.788136 -0.825299,-0.433475 -1.562876,-0.788136 -1.639062,-0.788136 -0.093,0 -0.117281,0.515653 -0.0739,1.569086 0.04162,1.010557 0.01531,1.618401 -0.07392,1.707628 -0.190074,0.190074 -0.90714,0.174426 -1.175541,-0.02565 -0.136498,-0.101754 -0.433276,-0.974624 -0.780402,-2.295293 l -0.56014,-2.131097 -1.444236,-0.758733 c -0.794329,-0.417303 -1.488874,-0.778437 -1.543432,-0.802518 -0.05456,-0.02408 -0.09612,0.773905 -0.09237,1.773305 l 0.0068,1.81709 1.689115,1.510593 c 0.929014,0.830827 1.720764,1.623093 1.759443,1.760593 0.09108,0.323766 -0.257911,0.997882 -0.516602,0.997882 -0.37719,0 -0.910231,-0.375042 -1.759614,-1.238046 -0.467511,-0.475006 -0.896059,-0.863649 -0.952331,-0.863649 -0.05627,0 -0.102311,0.81572 -0.102311,1.812712 0,1.234746 -0.05026,1.86297 -0.157628,1.970339 -0.256683,0.256684 -0.995441,0.194795 -1.15131,-0.09645 z"
   id="path827"
   inkscape:connector-curvature="0"
   transform="translate(0,-0.5)" /><path
   style="fill:#ffffff;stroke-width:0.13135593"
   d="m 11.411105,29.132609 c -0.19729,-0.144433 -0.247099,-0.456122 -0.315808,-1.976196 -0.04487,-0.992596 -0.111342,-1.804718 -0.147724,-1.804718 -0.03638,0 -0.514924,0.405145 -1.0634283,0.900321 -1.1160993,1.007588 -1.4053593,1.147777 -1.9016779,0.921638 -0.7318151,-0.333436 -0.428797,-0.836093 1.6130456,-2.675773 l 1.4579066,-1.313559 4.08e-4,-1.674788 c 2.86e-4,-1.166205 -0.04506,-1.674788 -0.149319,-1.674788 -0.08235,0 -0.784465,0.33362 -1.5602537,0.741378 l -1.4105241,0.741378 -0.5650383,2.040693 c -0.5672099,2.048537 -0.8102272,2.518924 -1.3013584,2.518924 -0.6028658,0 -0.6730889,-0.850393 -0.2088046,-2.528602 0.1748874,-0.63215 0.270552,-1.149364 0.212588,-1.149364 -0.057964,0 -0.5712266,0.26335 -1.1405835,0.585222 -0.5693569,0.321872 -1.2531972,0.675797 -1.519645,0.7865 -0.4685871,0.194687 -0.4976208,0.190196 -0.8866526,-0.137154 -0.7534655,-0.633999 -0.6001979,-0.828158 1.600976,-2.028116 0.7043962,-0.383998 1.2807204,-0.742565 1.2807204,-0.796816 0,-0.05425 -0.3398835,-0.167087 -0.7552966,-0.250747 -1.573489,-0.316884 -1.7661071,-0.374428 -2.0187969,-0.603109 -0.3742242,-0.338668 -0.2782579,-0.866659 0.1870964,-1.029374 0.2928133,-0.102385 0.827306,-0.01495 2.6020047,0.425628 l 2.2334936,0.55448 1.4043511,-0.776848 c 0.7723931,-0.427267 1.4043515,-0.851845 1.4043515,-0.943506 0,-0.09166 -0.6261835,-0.503839 -1.3915183,-0.915951 L 7.6800999,16.320066 5.3279736,16.879218 c -2.5182284,0.598637 -2.7164171,0.596577 -2.9549138,-0.03072 -0.2180407,-0.57349 0.092902,-0.713355 2.5402876,-1.142646 0.2709216,-0.04752 0.4925848,-0.13907 0.4925848,-0.20344 0,-0.06437 -0.5467691,-0.424136 -1.2150424,-0.79948 -1.7704489,-0.994396 -1.9375,-1.12974 -1.9375,-1.569759 0,-0.818464 0.5261369,-0.758554 2.5813067,0.293924 0.7387862,0.378342 1.3809226,0.650219 1.4269699,0.604172 0.046047,-0.04605 -0.0981,-0.651336 -0.320328,-1.345085 -0.2222277,-0.693749 -0.4040503,-1.376796 -0.4040503,-1.517882 0,-0.300876 0.3668796,-0.528474 0.8518807,-0.528474 0.4258982,0 0.5339344,0.238916 1.191445,2.634816 0.3319371,1.209544 0.5725648,1.842752 0.7640386,2.010558 0.2508872,0.219874 2.7373056,1.528354 2.9042326,1.528354 0.03744,0 0.06771,-0.753654 0.06728,-1.674788 l -7.8e-4,-1.674785 -1.5208155,-1.374414 C 8.9581209,11.333641 8.1550162,10.548403 8.0098925,10.344596 7.7631326,9.9980536 7.7597853,9.9530446 7.958247,9.6501539 8.2628669,9.185245 8.8203968,9.2219758 9.4405564,9.7478103 9.7139919,9.9796569 10.292373,10.496871 10.725847,10.897175 l 0.788136,0.727825 0.07929,-1.8266835 c 0.06888,-1.586907 0.111985,-1.8506196 0.32839,-2.0090353 0.212488,-0.1555482 0.784057,-0.1392151 0.950431,0.027159 0.0248,0.024797 0.0781,0.8791249 0.118458,1.8985053 l 0.07337,1.8534195 1.160652,-1.135759 c 1.03901,-1.016726 1.198708,-1.1265802 1.523761,-1.0481795 0.363386,0.087646 0.688665,0.3950631 0.694718,0.6565695 0.0018,0.0765 -0.796217,0.910606 -1.773305,1.853572 L 12.89322,13.60905 v 1.667933 c 0,0.917363 0.03054,1.667932 0.06787,1.667932 0.169481,0 2.91734,-1.440396 3.046942,-1.597172 0.08008,-0.09687 0.244159,-0.557098 0.364615,-1.022721 0.477815,-1.847002 0.866578,-2.890042 1.151579,-3.089665 0.418432,-0.293081 0.596957,-0.25102 0.874974,0.206143 0.24722,0.40652 0.246866,0.410594 -0.133287,1.535234 -0.20964,0.620198 -0.381163,1.205632 -0.381163,1.300965 0,0.108469 0.644729,-0.149741 1.722869,-0.689998 l 1.72287,-0.863331 0.313147,0.294187 c 0.62849,0.590435 0.361785,0.908338 -1.69003,2.014459 -0.632151,0.340788 -1.149365,0.669955 -1.149365,0.731482 0,0.132196 0.194437,0.193068 1.247882,0.390669 1.161078,0.217792 1.477104,0.373335 1.625931,0.800263 0.103096,0.295742 0.08837,0.423787 -0.06654,0.578697 -0.288976,0.288977 -0.707471,0.2514 -2.887385,-0.259264 -1.07575,-0.252004 -2.074129,-0.458638 -2.218621,-0.459187 -0.34899,-0.0013 -2.97536,1.448921 -2.920736,1.612793 0.02347,0.0704 0.682813,0.477615 1.465214,0.904927 l 1.422549,0.776932 2.052504,-0.516485 c 2.921374,-0.735125 2.99315,-0.74451 3.169804,-0.414429 0.08048,0.150372 0.128001,0.461753 0.105611,0.691958 -0.04437,0.456236 0.0519,0.418463 -2.248255,0.882152 -0.419447,0.08456 -0.742329,0.214645 -0.717516,0.289083 0.02481,0.07444 0.645327,0.468556 1.378921,0.875817 0.733594,0.407261 1.49945,0.864811 1.701905,1.016779 0.326015,0.244716 0.346896,0.301849 0.182648,0.499755 -0.430144,0.518293 -0.579796,0.496974 -2.237161,-0.318702 -0.878104,-0.432161 -1.65243,-0.785747 -1.720725,-0.785747 -0.07107,0 -0.124169,0.672089 -0.124169,1.57165 0,1.736722 -0.07495,1.893287 -0.836612,1.747686 -0.46232,-0.08838 -0.580422,-0.353101 -1.192211,-2.672303 -0.252939,-0.958855 -0.505808,-1.787379 -0.561931,-1.841165 -0.135929,-0.130267 -2.858958,-1.564343 -2.970381,-1.564343 -0.04794,0 -0.08717,0.820014 -0.08717,1.822254 v 1.822253 l 0.62394,0.561942 c 1.628634,1.466801 2.791314,2.6677 2.791314,2.883067 0,0.130522 -0.107403,0.36995 -0.238674,0.532063 -0.211057,0.260644 -0.275654,0.275499 -0.558263,0.128382 -0.175774,-0.0915 -0.772383,-0.572254 -1.325799,-1.068334 -0.553416,-0.496081 -1.032303,-0.901966 -1.064194,-0.901966 -0.03189,0 -0.09092,0.832005 -0.131176,1.848898 -0.04026,1.016893 -0.09348,1.869185 -0.118279,1.893984 -0.16023,0.160229 -0.736636,0.183662 -0.935561,0.03803 z"
   id="path817"
   inkscape:connector-curvature="0"
   transform="translate(0,-0.5)" /></svg>